<svg xmlns="http://www.w3.org/2000/svg" viewBox="0 0 96 96">
  <path clip-rule="evenodd" d="M 48.04 0 C 21.475 0 0 22 0 49.217 C 0 70.973 13.76 89.389 32.848 95.907 C 35.235 96.397 36.109 94.848 36.109 93.545 C 36.109 92.404 36.03 88.493 36.03 84.418 C 22.667 87.352 19.884 78.551 19.884 78.551 C 17.736 72.847 14.554 71.381 14.554 71.381 C 10.18 68.366 14.873 68.366 14.873 68.366 C 19.725 68.692 22.271 73.418 22.271 73.418 C 26.565 80.914 33.484 78.796 36.268 77.492 C 36.666 74.314 37.939 72.114 39.291 70.892 C 28.633 69.751 17.419 65.514 17.419 46.609 C 17.419 41.231 19.326 36.831 22.349 33.409 C 21.872 32.187 20.202 27.134 22.827 20.371 C 22.827 20.371 26.883 19.067 36.029 25.423 C 39.946 24.346 43.983 23.798 48.04 23.793 C 52.096 23.793 56.231 24.364 60.049 25.423 C 69.196 19.067 73.252 20.371 73.252 20.371 C 75.878 27.134 74.206 32.187 73.729 33.409 C 76.832 36.831 78.661 41.231 78.661 46.609 C 78.661 65.514 67.447 69.669 56.709 70.892 C 58.459 72.44 59.97 75.373 59.97 80.018 C 59.97 86.618 59.891 91.915 59.891 93.544 C 59.891 94.848 60.766 96.397 63.152 95.908 C 82.24 89.388 96 70.973 96 49.217 C 96.078 22 74.525 0 48.04 0 Z"/>
</svg>